<svg width="211" height="38" viewBox="0 0 211 38" fill="none"
     xmlns="http://www.w3.org/2000/svg">
  <g id="Group 497">
    <path id="borderrectangle-0"
          d="M35.6918 3.30113H33.5763C33.5719 3.30113 33.5684 3.30512 33.5684 3.31003V35.1502C33.5684 35.1551 33.5719 35.1591 33.5763 35.1591H35.6918C35.6961 35.1591 35.6997 35.1551 35.6997 35.1502V3.31003C35.6997 3.30512 35.6961 3.30113 35.6918 3.30113Z"
          fill="#4CBECF"/>
    <path id="text-0"
          d="M48.2436 13.0752C50.2318 13.0752 51.7342 13.5726 52.7506 14.5673C53.7649 15.5641 54.2721 17.0273 54.2721 18.9569C54.2721 20.8968 53.7671 22.3569 52.757 23.3372C51.7469 24.3175 50.2425 24.8076 48.2436 24.8076H44.2246V13.0752H48.2436ZM52.6772 18.9105C52.6772 17.3627 52.3051 16.2224 51.5609 15.4898C50.8166 14.7572 49.7109 14.3909 48.2436 14.3909H45.7716V23.492H48.2436C49.7215 23.492 50.8304 23.1257 51.5704 22.3931C52.3083 21.6604 52.6772 20.4996 52.6772 18.9105ZM56.9195 24.8076V13.0752H58.4665V24.8076H56.9195ZM65.3084 25.0708C63.7667 25.0708 62.3898 24.7922 61.1777 24.2349V22.811C62.4004 23.4404 63.7773 23.7551 65.3084 23.7551C66.1908 23.7551 66.8362 23.5745 67.2445 23.2134C67.6549 22.8522 67.8601 22.3776 67.8601 21.7894C67.8601 21.2322 67.6709 20.8143 67.2923 20.5357C66.916 20.2571 66.361 20.0146 65.6273 19.8082L64.5428 19.5141C63.9262 19.3387 63.3999 19.1375 62.964 18.9105C62.528 18.6835 62.1633 18.3553 61.8699 17.9261C61.5786 17.4989 61.4329 16.9396 61.4329 16.2482C61.4329 15.1441 61.7646 14.3032 62.4281 13.7253C63.0937 13.1475 64.0378 12.8585 65.2605 12.8585C65.9729 12.8585 66.6002 12.9225 67.1424 13.0505C67.6847 13.1805 68.2482 13.3745 68.833 13.6324V15.0255C67.7485 14.4579 66.5577 14.1742 65.2605 14.1742C64.4737 14.1742 63.8996 14.3517 63.5381 14.7066C63.1766 15.0636 62.9958 15.5517 62.9958 16.1709C63.0065 16.7384 63.184 17.1563 63.5285 17.4246C63.8751 17.6929 64.4153 17.9302 65.1489 18.1366L66.2493 18.4307C66.8979 18.6061 67.4476 18.8094 67.8984 19.0405C68.3513 19.2737 68.7181 19.6091 68.9988 20.0466C69.2816 20.4861 69.423 21.0568 69.423 21.7584C69.4124 22.78 69.0424 23.588 68.313 24.1823C67.5858 24.7746 66.5842 25.0708 65.3084 25.0708ZM79.8979 13.0752V14.4218H76.2617V24.8076H74.6988V14.4218H71.0625V13.0752H79.8979ZM89.2437 24.8076L86.1338 19.8392H83.7893V24.8076H82.2424V13.0752H86.4687C89.1055 13.0752 90.4239 14.2103 90.4239 16.4804C90.4239 17.3781 90.2038 18.1025 89.7636 18.6535C89.3213 19.2066 88.6589 19.5657 87.7764 19.7308L91.014 24.8076H89.2437ZM83.7893 14.3909V18.5235H86.4687C88.0422 18.5235 88.8343 17.8425 88.845 16.4804C88.845 15.7581 88.6483 15.2298 88.2549 14.8955C87.8615 14.5591 87.2661 14.3909 86.4687 14.3909H83.7893ZM93.5019 24.8076V13.0752H95.0489V24.8076H93.5019ZM104.793 18.8486C106.239 19.3026 106.962 20.2313 106.962 21.6346C106.962 22.7078 106.63 23.5044 105.964 24.0244C105.301 24.5466 104.193 24.8076 102.64 24.8076H98.4618V13.0752H102.64C104.054 13.0752 105.049 13.3332 105.623 13.8491C106.197 14.3651 106.484 15.1545 106.484 16.2173C106.484 16.8467 106.348 17.3802 106.076 17.8177C105.806 18.2573 105.378 18.6009 104.793 18.8486ZM100.009 14.3444V18.2914H102.64C104.139 18.2914 104.894 17.6361 104.905 16.3256C104.905 15.6033 104.74 15.0925 104.411 14.7933C104.081 14.4941 103.491 14.3444 102.64 14.3444H100.009ZM105.383 21.5418C105.383 20.8504 105.152 20.3468 104.688 20.0311C104.227 19.7174 103.544 19.5606 102.64 19.5606H100.009V23.5384H102.64C103.64 23.5384 104.347 23.3785 104.761 23.0586C105.176 22.7387 105.383 22.2331 105.383 21.5418ZM114.311 25.0708C112.77 25.0708 111.616 24.691 110.851 23.9316C110.085 23.1742 109.702 22.099 109.702 20.7059V13.0752H111.265V20.7059C111.265 21.7069 111.52 22.4653 112.031 22.9812C112.541 23.4972 113.301 23.7551 114.311 23.7551C115.321 23.7551 116.082 23.4972 116.592 22.9812C117.102 22.4653 117.357 21.7069 117.357 20.7059V13.0752H118.92V20.7059C118.92 22.099 118.538 23.1742 117.772 23.9316C117.007 24.691 115.853 25.0708 114.311 25.0708ZM130.036 13.0752V14.4218H126.4V24.8076H124.837V14.4218H121.201V13.0752H130.036ZM133.928 23.5075H139.781V24.8076H132.381V13.0752H139.701V14.3754H133.928V18.2604H138.904V19.5606H133.928V23.5075ZM146.463 13.0752C148.452 13.0752 149.953 13.5726 150.967 14.5673C151.984 15.5641 152.492 17.0273 152.492 18.9569C152.492 20.8968 151.987 22.3569 150.977 23.3372C149.967 24.3175 148.462 24.8076 146.463 24.8076H142.444V13.0752H146.463ZM150.897 18.9105C150.897 17.3627 150.525 16.2224 149.781 15.4898C149.036 14.7572 147.931 14.3909 146.463 14.3909H143.991V23.492H146.463C147.939 23.492 149.047 23.1257 149.787 22.3931C150.527 21.6604 150.897 20.4996 150.897 18.9105ZM162.074 25.0708C160.532 25.0708 159.155 24.7922 157.943 24.2349V22.811C159.166 23.4404 160.543 23.7551 162.074 23.7551C162.956 23.7551 163.602 23.5745 164.013 23.2134C164.421 22.8522 164.625 22.3776 164.625 21.7894C164.625 21.2322 164.437 20.8143 164.061 20.5357C163.682 20.2571 163.126 20.0146 162.393 19.8082L161.308 19.5141C160.691 19.3387 160.165 19.1375 159.729 18.9105C159.293 18.6835 158.93 18.3553 158.638 17.9261C158.345 17.4989 158.198 16.9396 158.198 16.2482C158.198 15.1441 158.531 14.3032 159.196 13.7253C159.86 13.1475 160.803 12.8585 162.026 12.8585C162.738 12.8585 163.365 12.9225 163.908 13.0505C164.45 13.1805 165.013 13.3745 165.598 13.6324V15.0255C164.514 14.4579 163.323 14.1742 162.026 14.1742C161.239 14.1742 160.665 14.3517 160.303 14.7066C159.942 15.0636 159.761 15.5517 159.761 16.1709C159.772 16.7384 159.95 17.1563 160.297 17.4246C160.641 17.6929 161.18 17.9302 161.914 18.1366L163.014 18.4307C163.663 18.6061 164.214 18.8094 164.667 19.0405C165.118 19.2737 165.484 19.6091 165.767 20.0466C166.048 20.4861 166.188 21.0568 166.188 21.7584C166.178 22.78 165.809 23.588 165.081 24.1823C164.352 24.7746 163.349 25.0708 162.074 25.0708ZM176.666 13.0752V14.4218H173.03V24.8076H171.467V14.4218H167.831V13.0752H176.666ZM183.967 25.0708C182.726 25.0708 181.671 24.8045 180.803 24.2721C179.936 23.7417 179.285 23.0142 178.851 22.0897C178.415 21.1672 178.197 20.1229 178.197 18.9569C178.197 17.8115 178.415 16.7797 178.851 15.8613C179.285 14.9429 179.936 14.2124 180.803 13.6696C181.671 13.1289 182.726 12.8585 183.967 12.8585C185.201 12.8585 186.248 13.1289 187.109 13.6696C187.973 14.2124 188.624 14.945 189.065 15.8675C189.505 16.792 189.725 17.8218 189.725 18.9569C189.725 20.1229 189.507 21.1672 189.071 22.0897C188.637 23.0142 187.986 23.7417 187.119 24.2721C186.251 24.8045 185.201 25.0708 183.967 25.0708ZM183.967 23.7551C184.839 23.7551 185.589 23.5436 186.216 23.1205C186.844 22.6975 187.32 22.1196 187.645 21.387C187.968 20.6543 188.13 19.8288 188.13 18.9105C188.13 18.0231 187.965 17.2203 187.636 16.5021C187.308 15.786 186.83 15.2184 186.2 14.7995C185.573 14.3826 184.829 14.1742 183.967 14.1742C183.074 14.1742 182.314 14.3857 181.687 14.8088C181.062 15.2318 180.59 15.8045 180.271 16.5268C179.952 17.2492 179.792 18.0592 179.792 18.9569C179.792 19.8753 179.952 20.6956 180.271 21.4179C180.59 22.1402 181.062 22.7098 181.687 23.1267C182.314 23.5457 183.074 23.7551 183.967 23.7551ZM199.342 24.8076L196.232 19.8392H193.887V24.8076H192.34V13.0752H196.567C199.203 13.0752 200.522 14.2103 200.522 16.4804C200.522 17.3781 200.302 18.1025 199.862 18.6535C199.419 19.2066 198.757 19.5657 197.874 19.7308L201.112 24.8076H199.342ZM193.887 14.3909V18.5235H196.567C198.14 18.5235 198.932 17.8425 198.943 16.4804C198.943 15.7581 198.746 15.2298 198.353 14.8955C197.96 14.5591 197.364 14.3909 196.567 14.3909H193.887ZM205.147 23.5075H211V24.8076H203.6V13.0752H210.92V14.3754H205.147V18.2604H210.123V19.5606H205.147V23.5075Z"
          fill="white"/>
    <path id="Vector"
          d="M7.17827 0.646301L0 3.17826V27.3599L17.6998 37.283L19.2134 36.7488V35.7882L22.9969 34.4532V35.4142L24.5101 34.8804V10.3737L7.17827 0.646301ZM22.9965 32.8661L19.2134 34.2007L19.213 12.2422L3.61807 3.48967L7.03362 2.28433L22.9965 11.2438V32.8661Z"
          fill="white"/>
  </g>
</svg>
