<svg viewBox="0 0 253 44" fill="none" xmlns="http://www.w3.org/2000/svg">
  <path d="M42.7963 3.18327H40.2597C40.2545 3.18327 40.2502 3.18805 40.2502 3.19394V41.372C40.2502 41.3779 40.2545 41.3827 40.2597 41.3827H42.7963C42.8016 41.3827 42.8058 41.3779 42.8058 41.372V3.19394C42.8058 3.18805 42.8016 3.18327 42.7963 3.18327Z" fill="#4CBECF"/>
  <path d="M57.8466 14.9029C60.2306 14.9029 62.0319 15.4993 63.2507 16.692C64.4669 17.8872 65.075 19.6417 65.075 21.9554C65.075 24.2814 64.4695 26.0322 63.2584 27.2076C62.0472 28.383 60.2433 28.9707 57.8466 28.9707H53.0276V14.9029H57.8466ZM63.1627 21.8997C63.1627 20.0438 62.7165 18.6766 61.8241 17.7981C60.9317 16.9197 59.6059 16.4804 57.8466 16.4804H54.8825V27.3932H57.8466C59.6186 27.3932 60.9483 26.9539 61.8356 26.0755C62.7204 25.197 63.1627 23.8051 63.1627 21.8997ZM68.2494 28.9707V14.9029H70.1044V28.9707H68.2494ZM78.3081 29.2862C76.4596 29.2862 74.8086 28.9521 73.3553 28.284V26.5766C74.8214 27.3313 76.4723 27.7087 78.3081 27.7087C79.3662 27.7087 80.1401 27.4922 80.6296 27.0591C81.1217 26.6261 81.3678 26.0569 81.3678 25.3517C81.3678 24.6835 81.1409 24.1825 80.687 23.8484C80.2357 23.5143 79.5702 23.2236 78.6906 22.9761L77.3902 22.6235C76.6508 22.4132 76.0197 22.1719 75.497 21.8997C74.9743 21.6275 74.5371 21.234 74.1852 20.7193C73.8359 20.2071 73.6612 19.5365 73.6612 18.7075C73.6612 17.3837 74.059 16.3753 74.8545 15.6824C75.6526 14.9895 76.7847 14.6431 78.2507 14.6431C79.1049 14.6431 79.8571 14.7198 80.5072 14.8732C81.1574 15.0291 81.8331 15.2617 82.5343 15.571V17.2414C81.2339 16.5609 79.8061 16.2206 78.2507 16.2206C77.3073 16.2206 76.6189 16.4334 76.1855 16.859C75.752 17.2871 75.5353 17.8724 75.5353 18.6147C75.548 19.2952 75.7609 19.7963 76.174 20.118C76.5896 20.4397 77.2372 20.7243 78.1169 20.9717L79.4364 21.3244C80.214 21.5347 80.8731 21.7784 81.4137 22.0556C81.9568 22.3352 82.3966 22.7373 82.7332 23.2619C83.0723 23.789 83.2418 24.4732 83.2418 25.3146C83.2291 26.5395 82.7854 27.5082 81.9109 28.2209C81.0389 28.9311 79.8379 29.2862 78.3081 29.2862ZM95.8018 14.9029V16.5176H91.4417V28.9707H89.5677V16.5176H85.2077V14.9029H95.8018ZM107.008 28.9707L103.279 23.0132H100.468V28.9707H98.6128V14.9029H103.68C106.842 14.9029 108.423 16.2639 108.423 18.9859C108.423 20.0623 108.159 20.9309 107.631 21.5916C107.101 22.2548 106.307 22.6854 105.248 22.8833L109.13 28.9707H107.008ZM100.468 16.4804V21.4357H103.68C105.567 21.4357 106.517 20.6191 106.53 18.9859C106.53 18.1198 106.294 17.4863 105.822 17.0855C105.35 16.6821 104.637 16.4804 103.68 16.4804H100.468ZM112.114 28.9707V14.9029H113.969V28.9707H112.114ZM125.653 21.8255C127.386 22.3699 128.253 23.4834 128.253 25.1661C128.253 26.4528 127.854 27.408 127.056 28.0316C126.261 28.6577 124.932 28.9707 123.071 28.9707H118.061V14.9029H123.071C124.767 14.9029 125.959 15.2122 126.647 15.8309C127.335 16.4495 127.68 17.396 127.68 18.6704C127.68 19.4251 127.517 20.0648 127.19 20.5894C126.866 21.1165 126.354 21.5285 125.653 21.8255ZM119.916 16.4248V21.1573H123.071C124.869 21.1573 125.774 20.3717 125.787 18.8003C125.787 17.9342 125.589 17.3218 125.194 16.963C124.799 16.6042 124.091 16.4248 123.071 16.4248H119.916ZM126.36 25.0547C126.36 24.2258 126.082 23.622 125.526 23.2434C124.973 22.8672 124.155 22.6792 123.071 22.6792H119.916V27.4488H123.071C124.269 27.4488 125.117 27.2571 125.614 26.8735C126.112 26.49 126.36 25.8837 126.36 25.0547ZM137.065 29.2862C135.217 29.2862 133.833 28.8309 132.916 27.9202C131.998 27.0121 131.539 25.7229 131.539 24.0525V14.9029H133.413V24.0525C133.413 25.2527 133.719 26.1621 134.331 26.7807C134.943 27.3994 135.854 27.7087 137.065 27.7087C138.276 27.7087 139.188 27.3994 139.8 26.7807C140.412 26.1621 140.718 25.2527 140.718 24.0525V14.9029H142.592V24.0525C142.592 25.7229 142.133 27.0121 141.215 27.9202C140.297 28.8309 138.914 29.2862 137.065 29.2862ZM155.92 14.9029V16.5176H151.56V28.9707H149.686V16.5176H145.326V14.9029H155.92ZM160.586 27.4117H167.605V28.9707H158.732V14.9029H167.509V16.4619H160.586V21.1202H166.553V22.6792H160.586V27.4117ZM175.617 14.9029C178.001 14.9029 179.801 15.4993 181.017 16.692C182.236 17.8872 182.846 19.6417 182.846 21.9554C182.846 24.2814 182.24 26.0322 181.029 27.2076C179.818 28.383 178.014 28.9707 175.617 28.9707H170.798V14.9029H175.617ZM180.933 21.8997C180.933 20.0438 180.487 18.6766 179.595 17.7981C178.702 16.9197 177.376 16.4804 175.617 16.4804H172.653V27.3932H175.617C177.387 27.3932 178.715 26.9539 179.602 26.0755C180.49 25.197 180.933 23.8051 180.933 21.8997ZM194.335 29.2862C192.486 29.2862 190.835 28.9521 189.382 28.284V26.5766C190.848 27.3313 192.499 27.7087 194.335 27.7087C195.393 27.7087 196.168 27.4922 196.66 27.0591C197.15 26.6261 197.394 26.0569 197.394 25.3517C197.394 24.6835 197.169 24.1825 196.717 23.8484C196.263 23.5143 195.597 23.2236 194.717 22.9761L193.417 22.6235C192.677 22.4132 192.046 22.1719 191.524 21.8997C191.001 21.6275 190.565 21.234 190.216 20.7193C189.864 20.2071 189.688 19.5365 189.688 18.7075C189.688 17.3837 190.087 16.3753 190.885 15.6824C191.68 14.9895 192.811 14.6431 194.277 14.6431C195.131 14.6431 195.884 14.7198 196.534 14.8732C197.184 15.0291 197.86 15.2617 198.561 15.571V17.2414C197.26 16.5609 195.833 16.2206 194.277 16.2206C193.334 16.2206 192.645 16.4334 192.212 16.859C191.779 17.2871 191.562 17.8724 191.562 18.6147C191.575 19.2952 191.789 19.7963 192.204 20.118C192.617 20.4397 193.264 20.7243 194.143 20.9717L195.463 21.3244C196.241 21.5347 196.901 21.7784 197.444 22.0556C197.985 22.3352 198.424 22.7373 198.763 23.2619C199.1 23.789 199.268 24.4732 199.268 25.3146C199.256 26.5395 198.813 27.5082 197.941 28.2209C197.067 28.9311 195.864 29.2862 194.335 29.2862ZM211.832 14.9029V16.5176H207.472V28.9707H205.598V16.5176H201.238V14.9029H211.832ZM220.587 29.2862C219.098 29.2862 217.833 28.967 216.793 28.3285C215.752 27.6926 214.972 26.8203 214.452 25.7117C213.929 24.6056 213.668 23.3535 213.668 21.9554C213.668 20.582 213.929 19.3447 214.452 18.2436C214.972 17.1424 215.752 16.2664 216.793 15.6156C217.833 14.9673 219.098 14.6431 220.587 14.6431C222.065 14.6431 223.321 14.9673 224.354 15.6156C225.389 16.2664 226.17 17.1449 226.698 18.251C227.226 19.3596 227.49 20.5944 227.49 21.9554C227.49 23.3535 227.229 24.6056 226.706 25.7117C226.186 26.8203 225.406 27.6926 224.365 28.3285C223.325 28.967 222.065 29.2862 220.587 29.2862ZM220.587 27.7087C221.632 27.7087 222.531 27.455 223.283 26.9478C224.035 26.4405 224.606 25.7476 224.996 24.8691C225.384 23.9907 225.578 23.0009 225.578 21.8997C225.578 20.8356 225.38 19.873 224.985 19.0119C224.592 18.1532 224.018 17.4727 223.264 16.9704C222.512 16.4705 221.619 16.2206 220.587 16.2206C219.516 16.2206 218.604 16.4743 217.852 16.9815C217.102 17.4888 216.536 18.1755 216.154 19.0416C215.771 19.9077 215.58 20.8789 215.58 21.9554C215.58 23.0565 215.771 24.0402 216.154 24.9063C216.536 25.7723 217.102 26.4553 217.852 26.9552C218.604 27.4575 219.516 27.7087 220.587 27.7087ZM239.021 28.9707L235.292 23.0132H232.481V28.9707H230.626V14.9029H235.694C238.855 14.9029 240.436 16.2639 240.436 18.9859C240.436 20.0623 240.172 20.9309 239.645 21.5916C239.114 22.2548 238.32 22.6854 237.262 22.8833L241.144 28.9707H239.021ZM232.481 16.4804V21.4357H235.694C237.58 21.4357 238.53 20.6191 238.543 18.9859C238.543 18.1198 238.307 17.4863 237.835 17.0855C237.364 16.6821 236.65 16.4804 235.694 16.4804H232.481ZM245.982 27.4117H253V28.9707H244.127V14.9029H252.904V16.4619H245.982V21.1202H251.948V22.6792H245.982V27.4117Z" fill="currentColor"/>
  <path d="M8.60712 0L0 3.03595V32.031L21.223 43.9293L23.0379 43.2888V42.137L27.5745 40.5362V41.6885L29.3889 41.0484V11.6637L8.60712 0ZM27.574 38.6332L23.0379 40.2335L23.0374 13.9041L4.33825 3.40935L8.43368 1.96408L27.574 12.707V38.6332Z" fill="currentColor"/>
</svg>
