<svg fill="currentColor" viewBox="0 0 24 24" xmlns="http://www.w3.org/2000/svg">
<path d="m21 5h-18c-0.26522 0-0.51957 0.10536-0.70711 0.29289-0.18753 0.18754-0.29289 0.44189-0.29289 0.70711v4h0.893c0.996 0 1.92 0.681 2.08 1.664 0.04874 0.287 0.03426 0.5813-0.04244 0.8621-0.07669 0.2809-0.21375 0.5416-0.40162 0.7641-0.18786 0.2224-0.422 0.4011-0.68607 0.5237-0.26408 0.1226-0.55172 0.1861-0.84287 0.1861h-1v4c0 0.2652 0.10536 0.5196 0.29289 0.7071 0.18754 0.1875 0.44189 0.2929 0.70711 0.2929h18c0.2652 0 0.5196-0.1054 0.7071-0.2929s0.2929-0.4419 0.2929-0.7071v-4h-1c-0.2911 0-0.5788-0.0635-0.8429-0.1861-0.264-0.1226-0.4982-0.3013-0.686-0.5237-0.1879-0.2225-0.325-0.4832-0.4017-0.7641-0.0767-0.2808-0.0911-0.5751-0.0424-0.8621 0.16-0.983 1.084-1.664 2.08-1.664h0.893v-4c0-0.26522-0.1054-0.51957-0.2929-0.70711-0.1875-0.18753-0.4419-0.29289-0.7071-0.29289zm-12 4c0.26522 0 0.51957 0.10536 0.70711 0.29289 0.18753 0.18754 0.29289 0.44189 0.29289 0.70711 0 0.2652-0.10536 0.5196-0.29289 0.7071-0.18754 0.1875-0.44189 0.2929-0.70711 0.2929s-0.51957-0.1054-0.70711-0.2929c-0.18753-0.1875-0.29289-0.4419-0.29289-0.7071 0-0.26522 0.10536-0.51957 0.29289-0.70711 0.18754-0.18753 0.44189-0.29289 0.70711-0.29289zm-0.8 6.4 6-8 1.6 1.2-6 8-1.6-1.2zm6.8-0.4c-0.2652 0-0.5196-0.1054-0.7071-0.2929s-0.2929-0.4419-0.2929-0.7071 0.1054-0.5196 0.2929-0.7071 0.4419-0.2929 0.7071-0.2929 0.5196 0.1054 0.7071 0.2929 0.2929 0.4419 0.2929 0.7071-0.1054 0.5196-0.2929 0.7071-0.4419 0.2929-0.7071 0.2929z" />
</svg>
