<svg viewBox="0 0 20 20" fill="none" xmlns="http://www.w3.org/2000/svg">
<path d="M10 0C8.02219 0 6.08879 0.58649 4.4443 1.6853C2.79981 2.78412 1.51809 4.3459 0.761209 6.17317C0.00433286 8.00043 -0.193701 10.0111 0.192152 11.9509C0.578004 13.8907 1.53041 15.6725 2.92894 17.0711C4.32746 18.4696 6.10929 19.422 8.0491 19.8079C9.98891 20.1937 11.9996 19.9957 13.8268 19.2388C15.6541 18.4819 17.2159 17.2002 18.3147 15.5557C19.4135 13.9112 20 11.9778 20 10C20 7.34784 18.9464 4.8043 17.0711 2.92893C15.1957 1.05357 12.6522 0 10 0V0ZM13.2804 16.4417H6.71959C6.49857 16.4417 6.28661 16.3539 6.13033 16.1976C5.97405 16.0413 5.88625 15.8293 5.88625 15.6083C5.88625 15.3873 5.97405 15.1754 6.13033 15.0191C6.28661 14.8628 6.49857 14.775 6.71959 14.775H13.2804C13.5014 14.775 13.7134 14.8628 13.8697 15.0191C14.026 15.1754 14.1138 15.3873 14.1138 15.6083C14.1138 15.8293 14.026 16.0413 13.8697 16.1976C13.7134 16.3539 13.5014 16.4417 13.2804 16.4417ZM13.8696 10.1733L10.5867 13.4583C10.4304 13.6146 10.2185 13.7023 9.9975 13.7023C9.77653 13.7023 9.56461 13.6146 9.40834 13.4583L6.13042 10.1808C5.97383 10.0246 5.88573 9.81252 5.8855 9.5913C5.88526 9.37009 5.97291 9.15784 6.12917 9.00125C6.28543 8.84466 6.49749 8.75656 6.7187 8.75633C6.93992 8.75609 7.15217 8.84374 7.30875 9L9.16667 10.8579V3.48542C9.16667 3.2644 9.25447 3.05244 9.41075 2.89616C9.56703 2.73988 9.77899 2.65208 10 2.65208C10.221 2.65208 10.433 2.73988 10.5893 2.89616C10.7455 3.05244 10.8333 3.2644 10.8333 3.48542V10.8529L12.6913 8.995C12.8484 8.8432 13.0589 8.75921 13.2774 8.76111C13.4959 8.763 13.7049 8.85064 13.8594 9.00515C14.0139 9.15966 14.1016 9.36867 14.1035 9.58717C14.1054 9.80566 14.0214 10.0162 13.8696 10.1733Z" fill="currentColor"/>
</svg>
