<svg viewBox="0 0 16 16" fill="none" xmlns="http://www.w3.org/2000/svg">
<g clip-path="url(#clip0_487_1571)">
<path d="M13.7747 5.92829L10.0442 2.19775L9.24438 3.0111L12.9749 6.74163L13.7747 5.92829Z" fill="currentColor"/>
<path d="M12.3144 7.41339L8.58383 3.68286L1.76636 10.6155L5.49686 14.346L12.3144 7.41339Z" fill="currentColor"/>
<path d="M0.0195312 16L4.70678 14.8882L1.22606 11.4075L0.0195312 16Z" fill="currentColor"/>
<path d="M15.5574 4.11538C16.0702 3.60069 16.0697 2.76472 15.5557 2.25075L13.6915 0.386531C13.4423 0.137281 13.1109 0 12.7584 0C12.4059 0 12.0745 0.137281 11.8252 0.386531L10.7046 1.52612L14.4351 5.25666L15.5574 4.11538Z" fill="currentColor"/>
<path d="M15.9806 13.1748H14.5066L15.3428 11.7746L14.534 11.2916L13.6767 12.7272L12.8194 11.2916L12.0106 11.7746L12.8467 13.1748H11.3728V14.1168H12.8467L12.0106 15.517L12.8194 16L13.6767 14.5645L14.534 16L15.3428 15.517L14.5066 14.1168H15.9806V13.1748Z" fill="currentColor"/>
</g>
<defs>
<clipPath id="clip0_487_1571">
<rect width="16" height="16" fill="white"/>
</clipPath>
</defs>
</svg>
