<?xml version="1.0" encoding="UTF-8"?>
<svg fill="none" viewBox="0 0 16 20" xmlns="http://www.w3.org/2000/svg">
<path d="m9 7h5.5l-5.5-5.5v5.5zm-7-7h8l6 6v12c0 0.5304-0.2107 1.0391-0.5858 1.4142s-0.8838 0.5858-1.4142 0.5858h-12c-0.53043 0-1.0391-0.2107-1.4142-0.5858-0.37507-0.3751-0.58579-0.8838-0.58579-1.4142v-16c0-1.11 0.89-2 2-2zm8 18v-1c0-1.33-2.67-2-4-2s-4 0.67-4 2v1h8zm-4-8c-0.53043 0-1.0391 0.2107-1.4142 0.5858-0.37508 0.3751-0.58579 0.8838-0.58579 1.4142s0.21071 1.0391 0.58579 1.4142c0.37507 0.3751 0.88378 0.5858 1.4142 0.5858s1.0391-0.2107 1.4142-0.5858c0.37508-0.3751 0.58579-0.8838 0.58579-1.4142s-0.21071-1.0391-0.58579-1.4142c-0.37507-0.3751-0.88378-0.5858-1.4142-0.5858z" fill="currentColor"/>
</svg>
