<svg viewBox="0 0 30 27" fill="none" xmlns="http://www.w3.org/2000/svg">
<path d="M22.6455 14.4771L20.6196 18.2853L22.6407 14.482L22.6455 14.4771Z" fill="#EF8300"/>
<path d="M29.7026 20.4063H29.1683L27.5368 27L21.1889 24.681C21.1889 24.681 21.1603 24.7464 21.1189 24.8233L20.9981 24.7137L20.8995 24.6237L17.4155 24.9706L17.3948 24.2358V24.2342L17.0163 23.6434H15.2226V20.637H16.288V20.4521H16.5186L17.3041 21.1476L17.3153 21.3015L20.618 19.7058H23.8667L29.6899 20.3932L29.7026 20.4063Z" fill="#EF8300"/>
<path d="M28.8281 9.64753L28.0568 10.3185L28.7104 10.8079L27.998 11.631L28.3828 12.0893L27.2252 13.4607L27.249 13.5393L21.2414 11.852L17.1706 7.98315L19.5892 6.09292L27.2617 0.0900109H27.2649L27.4637 0L28.9759 4.64129L28.324 9.18929L28.8281 9.64753Z" fill="#733800"/>
<path d="M29.7026 20.4063H29.1683L27.5368 27L21.1889 24.681C21.1889 24.681 21.1603 24.7464 21.1189 24.8233L20.9981 24.7137L20.8995 24.6237L17.3185 21.3195L17.3041 21.308L17.3153 21.3015L20.618 19.7058H23.8667L29.6899 20.3932L29.7026 20.4063Z" fill="#DC7600"/>
<path d="M20.9011 24.6237L17.4155 24.9707L17.3948 24.2358V24.2342L17.3057 21.3064L17.3185 21.3179L20.9011 24.6237Z" fill="#D4C2B1"/>
<path d="M23.8667 19.7058L20.9997 24.7137L20.6196 19.7058H23.8667Z" fill="#C66100"/>
<path d="M27.2617 0.0899658L19.5892 6.09288L17.1706 7.9831L18.6542 3.93752H18.6844L18.9388 3.8246L27.2617 0.0899658Z" fill="#DC7600"/>
<path d="M23.3102 14.3772L22.7759 14.225L22.6407 14.4803L20.6196 18.2837L20.3461 16.6356L17.4393 17.4588L16.6983 18.9857L16.9352 14.4361L16.3119 13.6735L16.9925 14.2528L17.1706 7.97986L21.2414 11.8471C21.2414 11.8471 22.7759 13.7946 22.9254 13.9157C23.0733 14.0417 23.3102 14.3772 23.3102 14.3772Z" fill="#DC7600"/>
<path d="M22.7759 14.225L22.6407 14.4819L20.6196 18.2853L20.3461 16.6373L17.4393 17.4605L16.6983 18.9874L16.9702 14.6423L16.9925 14.2561L22.7759 14.225Z" fill="#C66100"/>
<path d="M17.4393 17.4605L18.3282 15.8354L18.0388 15.4705L20.3461 16.6373L17.4393 17.4605Z" fill="#263344"/>
<path d="M17.4393 17.4604L16.6983 18.9873L16.9352 14.4393L16.9702 14.6423L17.4393 17.4604Z" fill="#DC7312"/>
<path d="M22.6455 14.4771L20.6196 18.2853L20.3461 16.6373L22.6407 14.482L22.6455 14.4771Z" fill="#DC7312"/>
<path d="M30 19.9645L29.4514 19.8565V19.629L29.0936 19.7812L27.249 13.5393L21.2414 11.852C21.2414 11.852 22.7759 13.7995 22.9254 13.9207C23.0733 14.0418 23.3102 14.3773 23.3102 14.3773L22.7759 14.2251L22.6407 14.4804L22.6439 14.4771L20.618 18.2854L20.3445 16.6373L17.4377 17.4605L16.6967 18.9875L16.9336 14.4378L16.3103 13.6752L16.9909 14.2545L17.169 7.98157L18.651 3.93599L15.3562 3.92944H15.283H15.221L11.3442 3.93599L12.8262 7.98157L13.0075 14.2562L13.6881 13.6768L13.0648 14.4394L13.3017 18.9891L12.5607 17.4622L9.65387 16.639L9.38037 18.287L7.35609 14.4771L7.35927 14.4804L7.22411 14.2251L6.68981 14.3773C6.68981 14.3773 6.92675 14.0418 7.07463 13.9207C7.22411 13.7995 8.75861 11.852 8.75861 11.852L2.75098 13.5393L0.906392 19.7812L0.548606 19.629V19.8565L0 19.9645L0.548606 20.1625L0.310082 20.3916L6.13326 19.7043H9.38196L12.6847 21.2999L12.6959 21.1461L13.4814 20.4505H13.712V20.6355H15.2242H15.3594H16.288V20.4505H16.5186L17.3041 21.1461L17.3153 21.2999L20.618 19.7043H23.8667L29.6899 20.3916L29.4514 20.1625L30 19.9645Z" fill="#EF8300"/>
<path d="M7.35609 14.4771L9.38037 18.2853L7.35927 14.482L7.35609 14.4771Z" fill="#EF8300"/>
<path d="M20.9997 24.7137L20.9011 24.6237L17.417 24.9707L17.3964 24.2359V24.2342L17.0179 23.6434H15.555H15.2258H12.9837L12.6052 24.2342V24.2359L12.5845 24.9707L9.1005 24.6237L9.00191 24.7137L8.88106 24.8234C8.95262 24.956 9.05439 25.1196 9.09255 25.0312C9.15139 24.8954 9.22612 24.6957 9.22612 24.6957L12.7404 26.4043H15.2242H15.5534H17.2612L20.7755 24.6957C20.7755 24.6957 20.8518 24.8954 20.909 25.0312C20.9472 25.1196 21.049 24.956 21.1205 24.8234L20.9997 24.7137Z" fill="#BEAC9C"/>
<path d="M0.297359 20.4063H0.831654L2.46316 27L8.81109 24.681C8.81109 24.681 8.83971 24.7464 8.88105 24.8233L9.00191 24.7137L9.1005 24.6237L12.5845 24.9706L12.6052 24.2358V24.2342L12.9837 23.6434H14.7758V20.637H13.7104V20.4521H13.4798L12.6943 21.1476L12.6831 21.3015L9.38037 19.7058H6.13325L0.310081 20.3932L0.297359 20.4063Z" fill="#EF8300"/>
<path d="M1.17195 9.64753L1.94477 10.3185L1.28962 10.8079L2.00201 11.631L1.61878 12.0893L2.77483 13.4607L2.75098 13.5393L8.75861 11.852L12.8294 7.98315L10.4108 6.09292L2.73826 0.0900109H2.73508L2.53631 0L1.02406 4.64129L1.67603 9.18929L1.17195 9.64753Z" fill="#733800"/>
<path d="M0.297359 20.4063H0.831654L2.46316 27L8.81109 24.681C8.81109 24.681 8.83971 24.7464 8.88105 24.8233L9.00191 24.7137L9.1005 24.6237L12.6815 21.3195L12.6959 21.308L12.6847 21.3015L9.38196 19.7058H6.13325L0.310081 20.3932L0.297359 20.4063Z" fill="#DC7600"/>
<path d="M9.1005 24.6237L12.5845 24.9707L12.6052 24.2358V24.2342L12.6959 21.3064L12.6815 21.3179L9.1005 24.6237Z" fill="#D4C2B1"/>
<path d="M6.13326 19.7058L9.00032 24.7137L9.38037 19.7058H6.13326Z" fill="#C66100"/>
<path d="M2.73826 0.0899658L10.4108 6.09288L12.8294 7.9831L11.3474 3.93752H11.3156L11.0612 3.8246L2.73826 0.0899658Z" fill="#DC7600"/>
<path d="M6.68981 14.3772L7.22411 14.225L7.35927 14.4803L9.38037 18.2837L9.65387 16.6357L12.5607 17.4588L13.3017 18.9858L13.0648 14.4361L13.6881 13.6735L13.0075 14.2561L12.8294 7.98315L8.75861 11.8504C8.75861 11.8504 7.22411 13.7979 7.07463 13.919C6.92675 14.0417 6.68981 14.3772 6.68981 14.3772Z" fill="#DC7600"/>
<path d="M7.22411 14.225L7.35927 14.4819L9.38037 18.2853L9.65546 16.6373L12.5607 17.4605L13.3017 18.9874L13.0314 14.6423L13.0075 14.2561L7.22411 14.225Z" fill="#C66100"/>
<path d="M12.5607 17.4605L11.6718 15.8354L11.9612 15.4705L9.65546 16.6373L12.5607 17.4605Z" fill="#263344"/>
<path d="M12.5607 17.4604L13.3017 18.9873L13.0664 14.4393L13.0314 14.6423L12.5607 17.4604Z" fill="#DC7312"/>
<path d="M7.35609 14.4771L9.38037 18.2853L9.65547 16.6373L7.35927 14.482L7.35609 14.4771Z" fill="#DC7312"/>
<path d="M17.5713 24.5141L17.3185 21.3179L17.3169 21.2999L17.3057 21.1461L16.5186 20.4521H16.288V20.6371H13.712V20.4521H13.4814L12.6959 21.1461L12.6831 21.2999L12.6815 21.3179L12.4287 24.5141L12.6052 24.2359V24.2342L12.9837 23.6434H14.6359H15.3641H17.0163L17.3948 24.2342V24.2359L17.5713 24.5141Z" fill="#02000A"/>
</svg>
