<svg fill="currentColor" viewBox="0 0 29 26" xmlns="http://www.w3.org/2000/svg" aria-hidden="true">
    <path d="m6.8381 17.909c0.5147 0.2998 1.1764 0.2998 1.7647 0l4.1175-2.4733 2.7941-1.574 4.0441-2.4734c0.5147-0.2998 1.1764-0.2998 1.7646 0l3.1617 1.9487c0.5147 0.2998 0.8824 0.8994 0.8824 1.574v3.7476c0 0.5996-0.2941 1.1992-0.8824 1.5739l-3.1617 1.8738c-0.5147 0.2998-1.1764 0.2998-1.7646 0l-3.1618-1.9487c-0.5146-0.2998-0.8823-0.8994-0.8823-1.574v-2.4734l-2.7941 1.6489v2.5484c0 0.5996 0.2942 1.1992 0.8824 1.5739l5.8822 3.5227c0.5147 0.2998 1.1765 0.2998 1.7647 0l6.0293-3.5976c0.5882-0.2998 0.8824-0.8994 0.8824-1.499v-7.0454c0-0.5996-0.2942-1.1992-0.8824-1.574l-5.9558-3.5227c-0.5147-0.2998-1.1764-0.2998-1.7646 0l-4.0441 2.3984-2.7941 1.649-4.044 2.3984c-0.51469 0.2998-1.1764 0.2998-1.7647 0l-3.1617-1.8738c-0.5147-0.2998-0.88234-0.8994-0.88234-1.574v-3.7475c0-0.59961 0.29411-1.1992 0.88234-1.574l3.0882-1.8738c0.5147-0.2998 1.1764-0.2998 1.7647 0l3.1617 1.8738c0.5147 0.2998 0.8823 0.89941 0.8823 1.574v2.3984l2.7941-1.6489v-2.4734c0-0.59961-0.2941-1.1992-0.8824-1.574l-5.9557-3.5227c-0.5147-0.2998-1.1764-0.2998-1.7647 0l-5.9558 3.5227c-0.5147 0.2998-0.88234 0.89941-0.88234 1.574l-5.912e-7 7.1204c-4.98e-8 0.5996 0.29411 1.1992 0.88234 1.5739l5.9558 3.5227z" />
</svg>
