<svg fill="currentColor" viewBox="0 0 28 25" xmlns="http://www.w3.org/2000/svg" aria-hidden="true">
    <path d="m21.466 20.852c0.1451-0.1787 0.2838-0.3612 0.4187-0.5449l2.5455 1.526h3.5636l-5.1393-3.0782c0.3367-0.6284 0.6189-1.2835 0.8439-1.9583 0.4735-1.3904 0.7197-2.8457 0.7292-4.3117-0.0074-1.4729-0.2597-2.9348-0.7471-4.3279-0.5045-1.4655-1.2679-2.8324-2.2552-4.0379-1.0351-1.261-2.3434-2.2797-3.8297-2.9819-1.5484-0.74985-3.3875-1.1248-5.5172-1.1248-2.0364 0-3.8123 0.37492-5.3277 1.1248-1.4639 0.70852-2.7543 1.7198-3.7826 2.9644-0.99128 1.2004-1.7493 2.5696-2.2362 4.0392-0.47516 1.4011-0.72088 2.8674-0.728 4.3441 0.002261 1.5024 0.23481 2.9959 0.68982 4.4304 0.45562 1.4682 1.1897 2.8387 2.1636 4.0392 1.0302 1.2511 2.3437 2.2487 3.836 2.9131 1.5765 0.7307 3.464 1.0961 5.6624 1.0961 2.0593 0 3.8411-0.375 5.3455-1.1248 0.2214-0.11 0.4352-0.2275 0.6465-0.3487l2.52 1.5097h3.5637l-4.4355-2.6607c0.5374-0.4484 1.0296-0.9464 1.47-1.4872zm-7.4658-2.1058h-3.5637l5.7273 3.4268c-0.0649 0.0437-0.1273 0.0875-0.1934 0.125-1.0267 0.6498-2.2439 0.9743-3.6515 0.9735-1.5018 0-2.7902-0.3145-3.8653-0.9435-1.0701-0.6188-1.9725-1.4818-2.6307-2.5158-0.68363-1.0799-1.184-2.2618-1.4815-3.4993-0.31341-1.254-0.47236-2.5405-0.47345-3.8317 0.00383-1.2686 0.1706-2.5317 0.49636-3.7593 0.31696-1.2386 0.83249-2.4198 1.5273-3.4993 0.65796-1.0316 1.5403-1.9073 2.5836-2.5645 1.036-0.6482 2.2493-0.97272 3.64-0.97356 1.4543 0 2.7109 0.32452 3.7698 0.97356 1.0664 0.65371 1.9653 1.5398 2.6269 2.5895 0.6926 1.0824 1.2124 2.2625 1.5413 3.4993 0.3358 1.2225 0.5069 2.483 0.5091 3.7493-0.0061 1.2553-0.1728 2.5048-0.4964 3.7192-0.0662 0.25-0.14 0.4937-0.2189 0.7361l-2.2807-1.3609h-3.5637l5.1393 3.0781c-0.1823 0.3633-0.3837 0.717-0.6033 1.0598-0.2706 0.4221-0.5772 0.8209-0.9163 1.1922l-3.6222-2.1745z" clip-rule="evenodd" fill-rule="evenodd"/>
</svg>
