<svg viewBox="0 0 20 20" fill="none" xmlns="http://www.w3.org/2000/svg">
<path fill-rule="evenodd" clip-rule="evenodd" d="M9.58333 2.5C5.67132 2.5 2.5 5.67132 2.5 9.58333C2.5 13.4953 5.67132 16.6667 9.58333 16.6667C11.2371 16.6667 12.7585 16.0999 13.9639 15.15L14.3 15.4785L16.9107 18.0893L16.9892 18.1586C17.3161 18.4128 17.7888 18.3897 18.0892 18.0893C18.4147 17.7638 18.4147 17.2362 18.0892 16.9107L15.4717 14.2932L15.1434 13.9724C16.0973 12.7656 16.6667 11.241 16.6667 9.58333C16.6667 5.67132 13.4953 2.5 9.58333 2.5ZM9.58331 4.16666C12.5749 4.16666 15 6.59179 15 9.58333C15 12.5749 12.5749 15 9.58331 15C6.59177 15 4.16665 12.5749 4.16665 9.58333C4.16665 6.59179 6.59177 4.16666 9.58331 4.16666Z" fill="currentColor"/>
</svg>
