<?xml version="1.0" encoding="UTF-8"?>
<svg viewBox="0 0 25 21" xmlns="http://www.w3.org/2000/svg">
<path d="m4.709 5.166c-0.23206 0-0.45462 0.09218-0.61871 0.25628-0.1641 0.16409-0.25629 0.38665-0.25629 0.61872 0 0.23206 0.09219 0.45462 0.25629 0.61871 0.16409 0.1641 0.38665 0.25629 0.61871 0.25629h4.6667c0.23207 0 0.45462-0.09219 0.61872-0.25629 0.16413-0.16409 0.25633-0.38665 0.25633-0.61871 0-0.23207-0.0922-0.45463-0.25633-0.61872-0.1641-0.1641-0.38665-0.25628-0.61872-0.25628h-4.6667z" fill="#4CBECF"/>
<path d="m22.72 6.3386c-0.0723-0.00467-0.1517-0.00467-0.2333-0.00467h-3.2352c-2.6495 0-4.9175 2.0253-4.9175 4.6667 0 2.6413 2.268 4.6666 4.9175 4.6666h3.2352c0.0816 0 0.161 0 0.2333-0.0046 1.0768-0.0654 2.0288-0.8832 2.1093-2.0265 0.0047-0.0747 0.0047-0.1552 0.0047-0.2299v-4.8113c0-0.07466 0-0.15516-0.0047-0.22983-0.0805-1.1433-1.0325-1.96-2.1093-2.0265zm-3.7532 5.9068c0.6814 0 1.2343-0.5577 1.2343-1.2448 0-0.6884-0.5529-1.2449-1.2343-1.2449-0.6825 0-1.2366 0.55768-1.2366 1.2449 0 0.6883 0.5541 1.2448 1.2366 1.2448z" clip-rule="evenodd" fill="#4CBECF" fill-rule="evenodd"/>
<path d="m22.664 6.3357c0-1.3778-0.0513-2.856-0.931-3.9142-0.086-0.10366-0.1767-0.20332-0.2718-0.29867-0.8739-0.87266-1.981-1.26-3.3484-1.4443-1.33-0.1785-3.0275-0.1785-5.1718-0.1785h-2.464c-2.1444 0-3.843 0-5.173 0.1785-1.3673 0.18433-2.4745 0.57167-3.3483 1.4443-0.87267 0.87384-1.26 1.981-1.4443 3.3483-0.17733 1.33-0.17733 3.0275-0.17733 5.1718v0.1307c0 2.1443 1e-6 3.843 0.1785 5.1718 0.18433 1.3673 0.57166 2.4745 1.4443 3.3483 0.87383 0.8727 1.981 1.26 3.3483 1.4444 1.33 0.1785 3.0275 0.1785 5.1718 0.1785h2.464c2.1443 0 3.843 0 5.1718-0.1785 1.3674-0.1844 2.4745-0.5717 3.3484-1.4444 0.2324-0.2331 0.4382-0.4914 0.6136-0.77 0.525-0.84 0.588-1.869 0.588-2.8583l-0.175 0.0012h-3.2363c-2.6495 0-4.9175-2.0254-4.9175-4.6667 0-2.6413 2.268-4.6667 4.9175-4.6667h3.2352c0.0606 0 0.1213 0 0.1773 0.00234z" fill="#4CBECF" opacity=".5"/>
</svg>
